<svg xmlns="http://www.w3.org/2000/svg" width="375" height="139.526" viewBox="0 0 375 139.526"><defs><style>.a{fill:#fff;}.b{fill:#e9b62f;}.c{fill:#fcbc00;}</style></defs><g transform="translate(122.646 67.465)"><path class="a" d="M44.655,40.684q4.67-.123,7.928-.181t5.177-.058q6.52,0,10.053,2.782t3.53,8.047A8.988,8.988,0,0,1,69.85,56.3a8.532,8.532,0,0,1-4.012,3.287,10.444,10.444,0,0,1,2.874,1.466,10.607,10.607,0,0,1,2.392,2.4,11.651,11.651,0,0,1,1.586,3.082,10.718,10.718,0,0,1,.571,3.472q0,5.746-3.773,8.827T58.655,81.916q-2.209,0-5.683-.062t-8.317-.178l-.42-.359V41.043Zm7.538,5.563V57.2H57.4q5.982,0,5.983-5.505a5.584,5.584,0,0,0-.868-3.41,4.372,4.372,0,0,0-2.423-1.558,13.354,13.354,0,0,0-3.622-.386C55.095,46.357,53.67,46.329,52.194,46.247Zm5.895,16.877H52.194V76.171q1.143-.062,2.587-.031c.96.021,1.924.01,2.884-.031a25.162,25.162,0,0,0,2.8-.27,5.348,5.348,0,0,0,2.406-.984,5.641,5.641,0,0,0,1.685-2.037,7.2,7.2,0,0,0,.632-3.233,7.086,7.086,0,0,0-.42-2.423A5.917,5.917,0,0,0,63.5,65.1,6.026,6.026,0,0,0,61.3,63.661,8.7,8.7,0,0,0,58.088,63.125Z" transform="translate(-44.235 -39.844)"/><path class="a" d="M62.859,71.174,62.8,74.881l4.186-.12H81.65a18.143,18.143,0,0,1-.178,2.935q-.661,3.829-5.15,3.831H59.506a4.447,4.447,0,0,1-3.38-1.288,4.853,4.853,0,0,1-1.227-3.5V40.952l.42-.42H80.272a16.175,16.175,0,0,1,.3,3.2,10.587,10.587,0,0,1-.66,3.561H62.8l.058,4.128V57.59l3.889-.062H76.862a11.557,11.557,0,0,1,0,6.581h-14Z" transform="translate(-18.456 -39.633)"/><path class="a" d="M88.215,56.429v-.6a14.828,14.828,0,0,0-.417-3.622,8.308,8.308,0,0,0-1.316-2.874,6.181,6.181,0,0,0-2.307-1.914,7.632,7.632,0,0,0-3.38-.687,6.629,6.629,0,0,0-6.342,3.919q-1.979,3.921-1.975,11.878,0,6.346,2.423,9.845a7.63,7.63,0,0,0,6.612,3.5,13.01,13.01,0,0,0,4.818-1.046,24.614,24.614,0,0,0,5.594-3.321,10.167,10.167,0,0,1,2.4,2.334,7.521,7.521,0,0,1,1.435,2.874,17.507,17.507,0,0,1-3.082,2.423,25.279,25.279,0,0,1-8.047,3.26,20.77,20.77,0,0,1-4.429.478,15.124,15.124,0,0,1-7.48-1.705,14.391,14.391,0,0,1-5-4.606,19.847,19.847,0,0,1-2.809-6.732,36.348,36.348,0,0,1-.868-8.082,30.457,30.457,0,0,1,1.316-9.425,19.8,19.8,0,0,1,3.561-6.7,14.6,14.6,0,0,1,5.266-4.012,15.655,15.655,0,0,1,6.431-1.346,19.86,19.86,0,0,1,6.373.96,14.888,14.888,0,0,1,4.818,2.6,11.683,11.683,0,0,1,3.052,3.831,10.457,10.457,0,0,1,1.08,4.7q0,4.49-4.548,4.49a13.073,13.073,0,0,1-1.439-.092A13.328,13.328,0,0,1,88.215,56.429Z" transform="translate(3.642 -40.269)"/><path class="a" d="M98.171,57.2l-.058-4.429V40.742a21.808,21.808,0,0,1,3.978-.3,23.961,23.961,0,0,1,4.1.3V81.615a24.249,24.249,0,0,1-4.1.3,22.088,22.088,0,0,1-3.978-.3V68.271l.058-4.429-3.157.062h-8.4l-3.219-.062.058,4.429V81.615a27.276,27.276,0,0,1-8.078,0V40.742a27.587,27.587,0,0,1,8.078,0V52.771L83.392,57.2l3.219-.058h8.4Z" transform="translate(31.028 -39.844)"/><path class="a" d="M86.23,78.409a9.043,9.043,0,0,1,1.107-3.383A9.418,9.418,0,0,1,89.459,72.3a22.361,22.361,0,0,0,12.09,3.95,7.057,7.057,0,0,0,4.548-1.346,4.175,4.175,0,0,0,1.674-3.38q-.118-3.47-4.606-5.447L96.1,63.086a14.855,14.855,0,0,1-6.281-4.456,9.956,9.956,0,0,1-2.1-6.253,11.281,11.281,0,0,1,1.049-4.907,10.814,10.814,0,0,1,2.99-3.8,14.546,14.546,0,0,1,4.61-2.484,18.364,18.364,0,0,1,5.895-.9,27.769,27.769,0,0,1,12.924,3.291,8.6,8.6,0,0,1-2.809,6.1,25.728,25.728,0,0,0-10.535-2.809,6.579,6.579,0,0,0-4.4,1.305,4.069,4.069,0,0,0-1.524,3.212q0,2.732,4.247,4.518l7.063,2.99a16.275,16.275,0,0,1,6.64,4.729,10.54,10.54,0,0,1,2.334,6.763,12.872,12.872,0,0,1-.957,5,10.287,10.287,0,0,1-2.9,3.95,14.047,14.047,0,0,1-4.849,2.573,22.578,22.578,0,0,1-6.851.926A25.855,25.855,0,0,1,86.23,78.409Z" transform="translate(57.274 -40.225)"/><path class="a" d="M128.175,40.786V66.937q0,7.484-4.1,11.523T112.5,82.5q-7.422,0-11.523-4.036t-4.1-11.523V40.847l.362-.42h3.017a4.649,4.649,0,0,1,3.554,1.227,5.625,5.625,0,0,1,1.145,3.919V67q0,9.093,7.542,9.1,7.6,0,7.6-9.1V40.786a27.586,27.586,0,0,1,8.078,0Z" transform="translate(83.01 -39.887)"/><path class="a" d="M134.039,78.922a11.224,11.224,0,0,1-4.88,2.276,27.712,27.712,0,0,1-6.312.718q-1.615,0-5-.062t-8.649-.178l-.417-.359V41.043l.417-.359q3.47-.123,6.971-.181t7.152-.058a19.053,19.053,0,0,1,8.348,1.613,13.527,13.527,0,0,1,5.3,4.459,18.159,18.159,0,0,1,2.785,6.612,38.684,38.684,0,0,1,.8,8.078,35.1,35.1,0,0,1-1.343,10.323A15.024,15.024,0,0,1,134.039,78.922Zm-3.287-27.348q-1.784-4.787-7.391-4.787h-3.694c-1.076,0-2.006-.021-2.8-.062V75.632q1.128-.056,2.594-.058c.974,0,1.955-.02,2.949-.061s1.917-.12,2.771-.239a6.958,6.958,0,0,0,2.119-.6,7.294,7.294,0,0,0,2.532-2.245A10.982,10.982,0,0,0,131.35,69.2a21.683,21.683,0,0,0,.745-3.947q.21-2.127.208-4.4a32.644,32.644,0,0,0-.328-4.784A20.331,20.331,0,0,0,130.752,51.575Z" transform="translate(111.796 -39.844)"/></g><path class="b" d="M109.441,100.45a2.285,2.285,0,0,0-1.353-.83L97.03,97.939c-.263-.683-.55-1.367-.868-2.047a37.321,37.321,0,0,0-4.589-7.736c-1.63-2.31-3.332-4.4-4.876-6.188-.14-.161-.284-.331-.42-.489-.54-.615-1.049-1.179-1.531-1.7-.4-.431-.772-.827-1.121-1.193-.639-.666-.386-.366-1.035-1.029A10.021,10.021,0,0,0,80.5,75.812a.6.6,0,0,0-.28-.075.449.449,0,0,0-.328.181l-.178.253A72.761,72.761,0,0,1,69.344,88.059a.828.828,0,0,0-.133,1.169c.055.092.106.185.171.277l.342.393.164.157a45.432,45.432,0,0,1,5.047,6.329c.588.868,1.2,1.811,1.815,2.85l.017.027a25.547,25.547,0,0,1,1.527,3.26,20.675,20.675,0,0,1,1.141,5.242c.031.454.058.912.058,1.374,0,.154-.01.3-.01.454-.007.331-.027.653-.044.974a20.416,20.416,0,0,1-18.8,18.924c-.451.031-.9.058-1.363.062l-.13,0c-.663,0-1.312-.031-1.948-.085l-.14-.01c-.26-.024-.506-.075-.762-.109a21.55,21.55,0,0,1-2.867-.6c-.349-.113-.7-.215-1.039-.349l-.065-.027c-.519-.2-1.029-.424-1.531-.666-.075-.041-.15-.082-.226-.12-.14-.072-.284-.14-.424-.212a20.787,20.787,0,0,1-4.764-3.6,19.513,19.513,0,0,1-5.929-14.311,21.338,21.338,0,0,1,.308-3.663c2.266-8.539,10.34-14.427,16.474-20.168C62.9,79.4,70.191,72.323,72.4,63.159a34.335,34.335,0,0,0-3.653-25.4A88.326,88.326,0,0,0,55.029,20.526c9.483,24.245-2.549,39.256-14.916,53.438l-7.142-5.59a3.729,3.729,0,0,0-.331-.2l-.311-.243a2.853,2.853,0,0,0-1.664-.557q-1.517,0-6.274,4.688a66.79,66.79,0,0,0-6.517,7.067,2.333,2.333,0,0,0-.55,1.592,3.011,3.011,0,0,0,.55,1.582q4.449,5.326,7.149,9.134a39.159,39.159,0,0,0-2.542,6.038l-12.305,1.9a1.528,1.528,0,0,0-.349.085,2.058,2.058,0,0,0-.923.748,2.6,2.6,0,0,0-.56,1.551v14.694A2.343,2.343,0,0,0,8.9,118a2.033,2.033,0,0,0,.29.3,1.887,1.887,0,0,0,1.059.454l.13.021a1.793,1.793,0,0,0,.622.178l11.348,1.8a40.3,40.3,0,0,0,2.751,6.424q-1.271,1.748-3.732,4.842t-3.257,4.21a2.674,2.674,0,0,0-.557,1.507,1.714,1.714,0,0,0,.181.67q1.246,2.8,11.253,12.042a3.38,3.38,0,0,0,.465.3,2.444,2.444,0,0,0,1.206.328c.079,0,.147-.014.222-.017a2.216,2.216,0,0,0,.427.058,2.129,2.129,0,0,0,1.582-.55l9.151-6.9c.116.055.236.113.355.174l.027.014.027.01a35.194,35.194,0,0,0,4.4,1.821c.133.044.27.085.407.13.055.021.113.041.171.058l.14.044L49.4,158.064a2.038,2.038,0,0,0,.793,1.391,2.463,2.463,0,0,0,1.117.547l.044.01a1.3,1.3,0,0,0,.2.017c.075.007.15.024.229.024H67.03a2.315,2.315,0,0,0,2.372-1.9,93.255,93.255,0,0,0,1.811-12.138c.5-.157.991-.325,1.48-.5.14-.051.273-.106.413-.161.39-.144.779-.3,1.162-.458.174-.072.349-.144.519-.219.376-.157.742-.328,1.107-.5.144-.068.29-.133.431-.205.27-.13.533-.267.8-.407l8.888,6.957a2.9,2.9,0,0,0,1.538.543,2.8,2.8,0,0,0,.509.051q1.5,0,6.206-4.705c2.221-2.221,3.95-4.046,5.208-5.488.513-.591.957-1.121,1.309-1.579a1.74,1.74,0,0,0,.157-.2,2.089,2.089,0,0,0,.393-1.305,2.714,2.714,0,0,0-.55-1.575q-4.429-5.305-7.111-9.093a33.185,33.185,0,0,0,2.628-6.26l11.871-1.838a1.522,1.522,0,0,0,.349-.082,2.093,2.093,0,0,0,.926-.752,2.755,2.755,0,0,0,.516-1.155,2.18,2.18,0,0,0,.034-.393V102A2.373,2.373,0,0,0,109.441,100.45Z" transform="translate(-8.344 -20.526)"/><g transform="translate(122.646 121.193)"><path class="c" d="M53.591,67.371a3.645,3.645,0,0,1-1.425,3.062,6.183,6.183,0,0,1-3.865,1.1,9.682,9.682,0,0,1-4.066-.68V69.182a10.692,10.692,0,0,0,1.992.608,10.432,10.432,0,0,0,2.136.226,4.315,4.315,0,0,0,2.6-.656,2.158,2.158,0,0,0,.875-1.825,2.331,2.331,0,0,0-.311-1.268,2.849,2.849,0,0,0-1.035-.909,14.936,14.936,0,0,0-2.214-.947,7.1,7.1,0,0,1-2.963-1.756A3.9,3.9,0,0,1,44.43,60a3.3,3.3,0,0,1,1.292-2.734,5.351,5.351,0,0,1,3.414-1.018,10.058,10.058,0,0,1,4.08.813l-.54,1.5a9.26,9.26,0,0,0-3.581-.772,3.456,3.456,0,0,0-2.143.591,1.94,1.94,0,0,0-.776,1.637,2.482,2.482,0,0,0,.287,1.264,2.658,2.658,0,0,0,.96.906,12,12,0,0,0,2.071.909A8.2,8.2,0,0,1,52.71,64.89,3.521,3.521,0,0,1,53.591,67.371Z" transform="translate(-44.235 -55.373)"/><path class="c" d="M57.936,63.1a6.137,6.137,0,0,1-1.374,4.254,4.82,4.82,0,0,1-3.79,1.531,5.019,5.019,0,0,1-2.655-.7,4.635,4.635,0,0,1-1.791-2.013A7.025,7.025,0,0,1,47.7,63.1a6.127,6.127,0,0,1,1.363-4.244,4.8,4.8,0,0,1,3.779-1.521,4.72,4.72,0,0,1,3.718,1.555A6.12,6.12,0,0,1,57.936,63.1Zm-8.488,0a5.275,5.275,0,0,0,.854,3.253,3.385,3.385,0,0,0,5.027.007,5.276,5.276,0,0,0,.858-3.26,5.2,5.2,0,0,0-.858-3.229,3.019,3.019,0,0,0-2.536-1.1,2.967,2.967,0,0,0-2.5,1.087A5.228,5.228,0,0,0,49.448,63.1Z" transform="translate(-35.864 -52.734)"/><path class="c" d="M53.339,71.852H51.651V56.031h1.688Z" transform="translate(-26.309 -55.898)"/><path class="c" d="M54.958,57.4V64.63a2.907,2.907,0,0,0,.619,2.033,2.523,2.523,0,0,0,1.941.673,3.177,3.177,0,0,0,2.559-.957,4.843,4.843,0,0,0,.806-3.123V57.4h1.688V68.546H61.18l-.246-1.5h-.092A3.338,3.338,0,0,1,59.4,68.31a4.79,4.79,0,0,1-2.1.437,4.262,4.262,0,0,1-3.045-.964,4.113,4.113,0,0,1-1.011-3.093V57.4Z" transform="translate(-22.447 -52.591)"/><path class="c" d="M62.008,68.89a4.749,4.749,0,0,1-3.745-1.49,6.115,6.115,0,0,1-1.329-4.213,6.318,6.318,0,0,1,1.35-4.323,4.85,4.85,0,0,1,3.837-1.524,7.554,7.554,0,0,1,1.606.174,5.1,5.1,0,0,1,1.261.407l-.519,1.432a7.515,7.515,0,0,0-1.22-.369,5.42,5.42,0,0,0-1.169-.15q-3.4,0-3.4,4.333a5.141,5.141,0,0,0,.83,3.151,2.873,2.873,0,0,0,2.454,1.1,7.529,7.529,0,0,0,2.86-.6v1.5A6.115,6.115,0,0,1,62.008,68.89Z" transform="translate(-13.539 -52.734)"/><path class="c" d="M60.067,57.309a1.135,1.135,0,0,1,.284-.851,1.006,1.006,0,0,1,.711-.27,1,1,0,0,1,.7.277,1.105,1.105,0,0,1,.294.844,1.119,1.119,0,0,1-.294.847.983.983,0,0,1-.7.28.971.971,0,0,1-.711-.28A1.143,1.143,0,0,1,60.067,57.309ZM61.9,71.473H60.211V60.326H61.9Z" transform="translate(-5.966 -55.518)"/><path class="c" d="M71.8,63.1a6.137,6.137,0,0,1-1.374,4.254,4.822,4.822,0,0,1-3.793,1.531,5.015,5.015,0,0,1-2.652-.7,4.635,4.635,0,0,1-1.791-2.013A7.025,7.025,0,0,1,61.56,63.1a6.143,6.143,0,0,1,1.36-4.244A4.816,4.816,0,0,1,66.7,57.34a4.725,4.725,0,0,1,3.718,1.555A6.12,6.12,0,0,1,71.8,63.1Zm-8.492,0a5.3,5.3,0,0,0,.854,3.253,3.389,3.389,0,0,0,5.03.007,5.276,5.276,0,0,0,.858-3.26,5.2,5.2,0,0,0-.858-3.229,3.022,3.022,0,0,0-2.539-1.1,2.975,2.975,0,0,0-2.5,1.087A5.25,5.25,0,0,0,63.306,63.1Z" transform="translate(-2.358 -52.734)"/><path class="c" d="M73.14,68.688v-7.21a2.891,2.891,0,0,0-.622-2.033,2.522,2.522,0,0,0-1.941-.67,3.211,3.211,0,0,0-2.563.943,4.794,4.794,0,0,0-.813,3.123v5.847H65.513V57.542h1.374l.273,1.528h.082A3.451,3.451,0,0,1,68.7,57.791a4.733,4.733,0,0,1,2.084-.451,4.235,4.235,0,0,1,3.028.97,4.13,4.13,0,0,1,1.018,3.106v7.272Z" transform="translate(7.197 -52.734)"/><path class="c" d="M74.491,68.89a5.115,5.115,0,0,1-3.9-1.5,5.828,5.828,0,0,1-1.428-4.179,6.462,6.462,0,0,1,1.326-4.282,4.41,4.41,0,0,1,3.564-1.586,4.2,4.2,0,0,1,3.315,1.377,5.287,5.287,0,0,1,1.22,3.636v1.066H70.914A4.391,4.391,0,0,0,71.9,66.4a3.415,3.415,0,0,0,2.648,1.018,9.014,9.014,0,0,0,3.557-.752v1.5a9.091,9.091,0,0,1-1.691.554A9.466,9.466,0,0,1,74.491,68.89Zm-.458-10.135a2.754,2.754,0,0,0-2.139.871,4.039,4.039,0,0,0-.943,2.423h5.826a3.711,3.711,0,0,0-.711-2.447A2.5,2.5,0,0,0,74.033,58.755Z" transform="translate(16.023 -52.734)"/><path class="c" d="M80.547,65.647a2.786,2.786,0,0,1-1.158,2.4,5.442,5.442,0,0,1-3.253.844,7.071,7.071,0,0,1-3.458-.7V66.624a8.352,8.352,0,0,0,1.722.639,7.164,7.164,0,0,0,1.777.236,4.032,4.032,0,0,0,2.033-.424,1.453,1.453,0,0,0,.147-2.4,8.917,8.917,0,0,0-2.2-1.094,11.932,11.932,0,0,1-2.211-1.011,3,3,0,0,1-.977-.981,2.541,2.541,0,0,1-.321-1.312,2.49,2.49,0,0,1,1.111-2.149A5.148,5.148,0,0,1,76.8,57.34a8.9,8.9,0,0,1,3.52.731l-.6,1.374a8.061,8.061,0,0,0-3.038-.69,3.475,3.475,0,0,0-1.811.376,1.161,1.161,0,0,0-.612,1.035,1.275,1.275,0,0,0,.229.762,2.283,2.283,0,0,0,.738.6,16.218,16.218,0,0,0,1.951.824,7.343,7.343,0,0,1,2.679,1.452A2.569,2.569,0,0,1,80.547,65.647Z" transform="translate(24.442 -52.734)"/><path class="c" d="M82.674,68.89a5.115,5.115,0,0,1-3.9-1.5,5.828,5.828,0,0,1-1.428-4.179,6.462,6.462,0,0,1,1.326-4.282,4.41,4.41,0,0,1,3.564-1.586,4.2,4.2,0,0,1,3.315,1.377,5.287,5.287,0,0,1,1.22,3.636v1.066H79.1a4.391,4.391,0,0,0,.991,2.98,3.42,3.42,0,0,0,2.648,1.018,9.014,9.014,0,0,0,3.557-.752v1.5a9.091,9.091,0,0,1-1.691.554A9.466,9.466,0,0,1,82.674,68.89Zm-.458-10.135a2.754,2.754,0,0,0-2.139.871,4.039,4.039,0,0,0-.943,2.423H84.96A3.711,3.711,0,0,0,84.25,59.6,2.5,2.5,0,0,0,82.216,58.755Z" transform="translate(35.802 -52.734)"/><path class="c" d="M88.663,68.688v-7.21a2.907,2.907,0,0,0-.619-2.033,2.53,2.53,0,0,0-1.944-.67,3.2,3.2,0,0,0-2.559.943,4.772,4.772,0,0,0-.817,3.123v5.847H81.039V57.542h1.37l.277,1.528h.079a3.472,3.472,0,0,1,1.456-1.278A4.733,4.733,0,0,1,86.3,57.34a4.244,4.244,0,0,1,3.031.97,4.143,4.143,0,0,1,1.015,3.106v7.272Z" transform="translate(44.726 -52.734)"/><path class="c" d="M88.233,71.852H86.545V56.031h1.688Z" transform="translate(58.035 -55.898)"/><path class="c" d="M89.851,57.4V64.63a2.907,2.907,0,0,0,.619,2.033,2.528,2.528,0,0,0,1.941.673,3.177,3.177,0,0,0,2.559-.957,4.822,4.822,0,0,0,.806-3.123V57.4h1.688V68.546H96.073l-.246-1.5h-.089A3.366,3.366,0,0,1,94.3,68.31a4.79,4.79,0,0,1-2.1.437,4.261,4.261,0,0,1-3.045-.964,4.127,4.127,0,0,1-1.011-3.093V57.4Z" transform="translate(61.896 -52.591)"/><path class="c" d="M97.2,60.525a4.139,4.139,0,0,1,3.41,1.5,6.581,6.581,0,0,1,1.213,4.244,6.623,6.623,0,0,1-1.223,4.265,4.122,4.122,0,0,1-3.4,1.521,4.831,4.831,0,0,1-1.989-.4,3.742,3.742,0,0,1-1.51-1.237h-.123l-.355,1.435h-1.21V56.031H93.7v3.841q0,1.3-.082,2.32H93.7A4.009,4.009,0,0,1,97.2,60.525Zm-.246,1.415a2.943,2.943,0,0,0-2.491.991,5.58,5.58,0,0,0-.762,3.339,5.609,5.609,0,0,0,.783,3.363,2.983,2.983,0,0,0,2.512,1.011,2.608,2.608,0,0,0,2.32-1.135,5.849,5.849,0,0,0,.762-3.26,5.62,5.62,0,0,0-.762-3.243A2.707,2.707,0,0,0,96.95,61.939Z" transform="translate(71.243 -55.898)"/><path class="c" d="M100.92,57.34a6.542,6.542,0,0,1,1.329.123l-.232,1.565a5.709,5.709,0,0,0-1.22-.154,2.962,2.962,0,0,0-2.313,1.1,3.992,3.992,0,0,0-.96,2.734v5.98H95.835V57.542h1.391l.195,2.067H97.5A4.891,4.891,0,0,1,99,57.931,3.346,3.346,0,0,1,100.92,57.34Z" transform="translate(80.491 -52.734)"/><path class="c" d="M98.372,57.309a1.123,1.123,0,0,1,.287-.851,1,1,0,0,1,.711-.27.987.987,0,0,1,.7.277,1.093,1.093,0,0,1,.3.844,1.107,1.107,0,0,1-.3.847,1.029,1.029,0,0,1-1.411,0A1.13,1.13,0,0,1,98.372,57.309ZM100.2,71.473H98.516V60.326H100.2Z" transform="translate(86.623 -55.518)"/><path class="c" d="M104.939,68.89a4.757,4.757,0,0,1-3.749-1.49,6.131,6.131,0,0,1-1.326-4.213,6.334,6.334,0,0,1,1.346-4.323,4.863,4.863,0,0,1,3.841-1.524,7.577,7.577,0,0,1,1.606.174,5.1,5.1,0,0,1,1.261.407l-.519,1.432a7.515,7.515,0,0,0-1.22-.369,5.42,5.42,0,0,0-1.169-.15q-3.4,0-3.4,4.333a5.165,5.165,0,0,0,.827,3.151,2.884,2.884,0,0,0,2.457,1.1,7.5,7.5,0,0,0,2.857-.6v1.5A6.091,6.091,0,0,1,104.939,68.89Z" transform="translate(90.232 -52.734)"/><path class="c" d="M110.484,68.674l-.338-1.586h-.079a4.724,4.724,0,0,1-1.664,1.418,5.076,5.076,0,0,1-2.067.369,3.722,3.722,0,0,1-2.6-.854,3.119,3.119,0,0,1-.94-2.43q0-3.373,5.4-3.537l1.893-.062V61.3a2.807,2.807,0,0,0-.567-1.934,2.319,2.319,0,0,0-1.8-.625,7.338,7.338,0,0,0-3.151.854l-.519-1.292a8.048,8.048,0,0,1,3.773-.957,4.23,4.23,0,0,1,2.952.885,3.681,3.681,0,0,1,.964,2.836v7.607Zm-3.814-1.189a3.43,3.43,0,0,0,2.474-.865,3.2,3.2,0,0,0,.9-2.423v-1l-1.688.072a6.159,6.159,0,0,0-2.9.625,1.887,1.887,0,0,0-.888,1.722,1.739,1.739,0,0,0,.554,1.394A2.309,2.309,0,0,0,106.67,67.485Z" transform="translate(97.314 -52.719)"/><path class="c" d="M111.412,68.89a4.757,4.757,0,0,1-3.749-1.49,6.131,6.131,0,0,1-1.326-4.213,6.334,6.334,0,0,1,1.346-4.323,4.863,4.863,0,0,1,3.841-1.524,7.577,7.577,0,0,1,1.606.174,5.1,5.1,0,0,1,1.261.407l-.519,1.432a7.513,7.513,0,0,0-1.22-.369,5.419,5.419,0,0,0-1.169-.15q-3.4,0-3.4,4.333a5.165,5.165,0,0,0,.827,3.151,2.883,2.883,0,0,0,2.457,1.1,7.5,7.5,0,0,0,2.857-.6v1.5A6.091,6.091,0,0,1,111.412,68.89Z" transform="translate(105.878 -52.734)"/><path class="c" d="M109.471,57.309a1.122,1.122,0,0,1,.284-.851,1,1,0,0,1,.711-.27.981.981,0,0,1,.7.277,1.093,1.093,0,0,1,.3.844,1.107,1.107,0,0,1-.3.847,1.029,1.029,0,0,1-1.411,0A1.129,1.129,0,0,1,109.471,57.309ZM111.3,71.473h-1.688V60.326H111.3Z" transform="translate(113.451 -55.518)"/><path class="c" d="M121.2,66.363a6.137,6.137,0,0,1-1.374,4.254,4.823,4.823,0,0,1-3.793,1.531,5.015,5.015,0,0,1-2.652-.7,4.635,4.635,0,0,1-1.791-2.013,7.024,7.024,0,0,1-.629-3.072,6.143,6.143,0,0,1,1.36-4.244,4.816,4.816,0,0,1,3.783-1.521,4.725,4.725,0,0,1,3.718,1.555A6.12,6.12,0,0,1,121.2,66.363Zm-8.492,0a5.3,5.3,0,0,0,.854,3.253,3.389,3.389,0,0,0,5.03.007,5.276,5.276,0,0,0,.858-3.26,5.2,5.2,0,0,0-.858-3.229,3.022,3.022,0,0,0-2.539-1.1,2.975,2.975,0,0,0-2.5,1.087A5.25,5.25,0,0,0,112.71,66.363Zm1.955-7.289q.487-.63,1.052-1.527a16.815,16.815,0,0,0,.888-1.555h2.054v.215a15.262,15.262,0,0,1-1.333,1.627,14.972,14.972,0,0,1-1.534,1.493h-1.128Z" transform="translate(117.06 -55.992)"/><path class="c" d="M122.544,68.688v-7.21a2.891,2.891,0,0,0-.622-2.033,2.522,2.522,0,0,0-1.941-.67,3.211,3.211,0,0,0-2.563.943,4.794,4.794,0,0,0-.813,3.123v5.847h-1.688V57.542h1.374l.273,1.528h.082a3.451,3.451,0,0,1,1.456-1.278,4.733,4.733,0,0,1,2.084-.451,4.235,4.235,0,0,1,3.028.97,4.13,4.13,0,0,1,1.018,3.106v7.272Z" transform="translate(126.615 -52.734)"/></g></svg>